HIERARCHY
ROOT Hips
{
	OFFSET -1.602300 6.242603 43.997101
	CHANNELS 6 Xposition Yposition Zposition Zrotation Xrotation Yrotation
	JOINT Chest
	{
		OFFSET -0.204900 1.598101 7.917301
		CHANNELS 6 Xposition Yposition Zposition Zrotation Xrotation Yrotation
		JOINT Chest2
		{
			OFFSET 0.000000 0.000000 3.404099
			CHANNELS 6 Xposition Yposition Zposition Zrotation Xrotation Yrotation
			JOINT Neck
			{
				OFFSET 0.000000 0.000000 7.928600
				CHANNELS 6 Xposition Yposition Zposition Zrotation Xrotation Yrotation
				JOINT Head
				{
					OFFSET 0.000000 0.000000 2.173897
					CHANNELS 6 Xposition Yposition Zposition Zrotation Xrotation Yrotation
					End Site
					{
						OFFSET 0.000000 0.000001 10.404503
					}
				}
			}
			JOINT LeftCollar
			{
				OFFSET 2.833800 -1.396299 4.843300
				CHANNELS 6 Xposition Yposition Zposition Zrotation Xrotation Yrotation
				JOINT LeftShoulder
				{
					OFFSET 4.363600 0.000000 0.000000
					CHANNELS 6 Xposition Yposition Zposition Zrotation Xrotation Yrotation
					JOINT LeftElbow
					{
						OFFSET 0.000000 -0.000001 -10.306900
						CHANNELS 6 Xposition Yposition Zposition Zrotation Xrotation Yrotation
						JOINT LeftWrist
						{
							OFFSET 0.000000 -0.000001 -12.404900
							CHANNELS 6 Xposition Yposition Zposition Zrotation Xrotation Yrotation
							End Site
							{
								OFFSET 0.000000 0.000000 -2.173901
							}
						}
					}
				}
			}
			JOINT RightCollar
			{
				OFFSET -2.354800 -1.897200 5.063099
				CHANNELS 6 Xposition Yposition Zposition Zrotation Xrotation Yrotation
				JOINT RightShoulder
				{
					OFFSET -4.375800 0.000000 0.000000
					CHANNELS 6 Xposition Yposition Zposition Zrotation Xrotation Yrotation
					JOINT RightElbow
					{
						OFFSET 0.000000 -0.000001 -10.005001
						CHANNELS 6 Xposition Yposition Zposition Zrotation Xrotation Yrotation
						JOINT RightWrist
						{
							OFFSET 0.000000 -0.000001 -13.174900
							CHANNELS 6 Xposition Yposition Zposition Zrotation Xrotation Yrotation
							End Site
							{
								OFFSET 0.000000 0.000000 -2.173901
							}
						}
					}
				}
			}
		}
	}
	JOINT LeftHip
	{
		OFFSET 2.240600 0.386800 -2.614101
		CHANNELS 6 Xposition Yposition Zposition Zrotation Xrotation Yrotation
		JOINT LeftKnee
		{
			OFFSET 0.000000 -0.000001 -18.592899
			CHANNELS 6 Xposition Yposition Zposition Zrotation Xrotation Yrotation
			JOINT LeftAnkle
			{
				OFFSET 0.000000 -0.000001 -18.765800
				CHANNELS 6 Xposition Yposition Zposition Zrotation Xrotation Yrotation
				End Site
				{
					OFFSET 0.000000 -8.655000 0.000000
				}
			}
		}
	}
	JOINT RightHip
	{
		OFFSET -2.014900 -0.220900 -2.615898
		CHANNELS 6 Xposition Yposition Zposition Zrotation Xrotation Yrotation
		JOINT RightKnee
		{
			OFFSET 0.000000 -0.000001 -18.633900
			CHANNELS 6 Xposition Yposition Zposition Zrotation Xrotation Yrotation
			JOINT RightAnkle
			{
				OFFSET 0.000000 -0.000001 -18.285101
				CHANNELS 6 Xposition Yposition Zposition Zrotation Xrotation Yrotation
				End Site
				{
					OFFSET 0.000000 -7.524500 0.000000
				}
			}
		}
	}
}
MOTION
Frames: 9
Frame Time: 0.041667
-6.561700 26.786901 7.760403 6.290381 -7.642627 3.112727 -0.204900 1.598100 7.917313 -6.449737 10.005694 2.172598 0.000000 0.000002 3.404102 -3.910711 -18.069236 -2.446441 -0.000001 -0.000001 7.928603 7.342336 12.987601 -7.945579 0.000001 0.000005 2.173908 0.363799 -4.463503 2.964680 2.833799 -1.396297 4.843300 36.409314 -7.241678 -7.768883 4.363597 0.000004 -0.000007 -60.589864 -16.075069 -120.748606 -0.000003 0.000000 -10.306902 572.119430 -166.880154 543.712127 -0.000001 0.000006 -12.404895 -398.017717 343.818500 -400.639800 -2.354802 -1.897200 5.063102 7.362011 12.637182 -17.425788 -4.375797 0.000000 -0.000012 44.455888 -10.991759 161.394925 0.000001 0.000002 -10.004987 -553.293735 -174.970991 -540.074095 0.000003 0.000001 -13.174896 44.505342 -5.644511 401.374099 2.240598 0.386802 -2.614100 134.046602 -35.554177 100.808620 0.000001 -0.000000 -18.592894 -118.055435 36.144903 133.805933 0.000001 -0.000000 -18.765795 9.893246 36.765884 -5.424962 -2.014898 -0.220897 -2.615896 -114.169412 -22.163026 -90.536111 0.000000 0.000003 -18.633883 175.201811 29.848258 -179.202280 -0.000006 -0.000008 -18.285088 -12.041611 33.411991 -208.912592
-6.566800 26.802204 7.738007 6.242693 -7.715568 3.051693 -0.204900 1.598097 7.917312 -6.411168 10.253677 2.219722 0.000000 0.000000 3.404100 -3.887362 -18.128026 -2.446234 -0.000001 -0.000003 7.928603 7.329043 12.738497 -7.929379 -0.000000 0.000002 2.173905 0.287296 -4.505739 2.918885 2.833799 -1.396299 4.843302 36.105667 -6.962830 -7.557866 4.363599 0.000001 -0.000010 -60.109073 -15.712336 -120.934196 0.000001 -0.000000 -10.306901 572.338051 -167.014340 543.646557 -0.000001 0.000003 -12.404900 -397.957393 343.581574 -401.467099 -2.354802 -1.897204 5.063104 7.448475 12.493270 -17.653751 -4.375799 0.000004 -0.000019 44.152320 -10.872171 161.376511 -0.000002 0.000001 -10.004997 -552.805349 -175.003230 -540.022623 0.000005 0.000003 -13.174895 43.839941 -5.534925 401.774185 2.240598 0.386798 -2.614099 134.037558 -35.629965 100.772754 -0.000001 0.000001 -18.592892 -118.037144 36.258855 133.854004 -0.000001 0.000002 -18.765799 9.839805 36.797292 -5.410706 -2.014900 -0.220901 -2.615894 -114.093823 -22.313960 -90.575774 0.000001 0.000003 -18.633881 175.111516 29.874827 -179.248998 -0.000006 -0.000006 -18.285086 -12.067028 33.403867 -208.876214
-6.573801 26.815605 7.718407 6.220375 -7.765204 3.038532 -0.204900 1.598100 7.917303 -6.388934 10.472781 2.207591 0.000001 0.000002 3.404103 -3.855244 -18.175115 -2.443692 -0.000001 -0.000004 7.928600 7.263307 12.497402 -7.860443 -0.000000 0.000001 2.173898 0.254883 -4.510220 2.854332 2.833798 -1.396300 4.843304 35.758380 -6.693290 -7.506771 4.363596 0.000005 -0.000006 -59.539230 -15.416582 -121.022783 0.000001 -0.000001 -10.306901 572.640164 -167.171202 543.580059 -0.000001 0.000002 -12.404904 -397.969004 343.344157 -402.344178 -2.354802 -1.897202 5.063101 7.496195 12.357350 -17.751170 -4.375796 0.000002 -0.000016 43.803376 -10.798971 161.294535 0.000000 0.000001 -10.004997 -552.366032 -175.048091 -539.975085 0.000004 -0.000000 -13.174902 43.306521 -5.238711 402.017968 2.240598 0.386802 -2.614107 134.031698 -35.785472 100.793655 0.000001 0.000001 -18.592890 -117.982625 36.404461 133.911979 -0.000000 0.000002 -18.765799 9.755735 36.834285 -5.408207 -2.014900 -0.220895 -2.615903 -114.025671 -22.455937 -90.594926 -0.000000 0.000003 -18.633883 174.998818 29.913049 -179.304501 -0.000006 -0.000008 -18.285084 -12.087941 33.399762 -208.853265
-6.580500 26.830002 7.699112 6.196142 -7.768569 3.044329 -0.204901 1.598097 7.917307 -6.361171 10.624724 2.162439 0.000000 0.000002 3.404095 -3.829560 -18.179027 -2.438126 0.000001 -0.000001 7.928604 7.182327 12.261618 -7.767401 -0.000000 0.000002 2.173905 0.267480 -4.534377 2.787853 2.833799 -1.396297 4.843304 35.331691 -6.416165 -7.626907 4.363601 0.000005 -0.000005 -58.844634 -15.255841 -121.029668 0.000001 0.000000 -10.306895 573.108606 -167.343979 543.540826 0.000000 0.000005 -12.404893 -398.137519 343.078708 -403.263931 -2.354803 -1.897199 5.063100 7.557250 12.204857 -17.778211 -4.375797 0.000000 -0.000011 43.464705 -10.767998 161.183503 -0.000002 0.000000 -10.005001 -552.128997 -175.109644 -539.944376 0.000007 0.000003 -13.174904 42.812032 -5.204490 402.226343 2.240598 0.386802 -2.614101 134.055344 -35.912848 100.870037 0.000000 0.000001 -18.592894 -117.947313 36.556187 133.975513 0.000001 0.000001 -18.765797 9.664769 36.871301 -5.419065 -2.014896 -0.220898 -2.615900 -113.969937 -22.560453 -90.640613 0.000000 0.000003 -18.633890 174.883579 29.950998 -179.358882 -0.000006 -0.000008 -18.285084 -12.116146 33.396664 -208.829004
-6.587500 26.845701 7.679417 6.191026 -7.761774 3.071384 -0.204901 1.598100 7.917308 -6.348986 10.758057 2.098142 0.000000 0.000006 3.404104 -3.812337 -18.162306 -2.430445 -0.000001 -0.000001 7.928598 7.103592 12.034842 -7.673415 0.000000 0.000004 2.173905 0.331074 -4.586871 2.731583 2.833800 -1.396299 4.843299 34.850241 -6.095579 -7.805155 4.363599 0.000008 -0.000009 -58.060501 -15.140200 -121.042864 0.000004 0.000003 -10.306901 573.605188 -167.497357 543.491157 -0.000001 0.000005 -12.404893 -398.328491 342.871043 -404.175816 -2.354801 -1.897203 5.063102 7.773042 12.040748 -17.717939 -4.375798 -0.000001 -0.000015 42.918166 -10.831743 161.017844 -0.000001 0.000003 -10.004983 -552.114189 -175.177891 -539.927000 0.000005 0.000003 -13.174902 42.461708 -5.146573 402.438516 2.240598 0.386804 -2.614100 134.069169 -36.066606 100.970051 0.000000 -0.000001 -18.592894 -117.906359 36.717799 134.044225 0.000001 0.000002 -18.765797 9.563964 36.895664 -5.447728 -2.014901 -0.220895 -2.615898 -113.933976 -22.631868 -90.681225 0.000000 0.000004 -18.633883 174.763504 29.989301 -179.406516 -0.000005 -0.000006 -18.285088 -12.159580 33.392733 -208.794252
-6.595200 26.863707 7.658306 6.183510 -7.729491 3.105564 -0.204900 1.598101 7.917307 -6.333286 10.843793 2.023775 0.000001 0.000003 3.404100 -3.803046 -18.118139 -2.422772 -0.000000 -0.000001 7.928605 7.006147 11.808776 -7.564463 0.000001 0.000003 2.173898 0.443538 -4.666804 2.665854 2.833798 -1.396300 4.843306 34.295008 -5.771877 -8.108560 4.363595 0.000007 -0.000008 -57.126364 -15.073089 -121.002443 0.000006 -0.000001 -10.306901 574.162695 -167.656023 543.468645 -0.000003 0.000008 -12.404898 -398.551701 342.613873 -405.247281 -2.354802 -1.897202 5.063106 8.132358 11.871133 -17.580487 -4.375796 -0.000001 -0.000014 42.103533 -10.909368 160.795876 0.000000 0.000002 -10.004998 -552.800869 -175.323894 -539.949458 0.000005 0.000001 -13.174904 42.641397 -5.095623 402.649815 2.240598 0.386801 -2.614099 134.067557 -36.525424 101.088521 0.000000 0.000001 -18.592894 -117.591296 36.986550 134.091968 -0.000001 0.000000 -18.765799 9.394547 36.910475 -5.526506 -2.014901 -0.220898 -2.615895 -113.993364 -22.329410 -90.792871 0.000000 0.000004 -18.633884 174.853908 29.966963 -179.384018 -0.000006 -0.000006 -18.285088 -12.287281 33.370938 -208.664342
-6.603500 26.883703 7.635708 6.188333 -7.715175 3.126581 -0.204901 1.598103 7.917305 -6.334074 10.975711 1.979113 -0.000001 0.000005 3.404100 -3.790171 -18.095012 -2.416688 -0.000001 -0.000001 7.928596 6.925552 11.574761 -7.498436 0.000000 0.000001 2.173906 0.395740 -4.904719 3.106141 2.833797 -1.396300 4.843296 33.847026 -5.466943 -8.235139 4.363600 0.000007 -0.000006 -56.349576 -14.937043 -121.087889 0.000003 0.000003 -10.306897 574.774079 -167.798377 543.484819 -0.000007 0.000001 -12.404898 -398.873813 342.437545 -406.261428 -2.354805 -1.897204 5.063096 8.521960 11.721362 -17.525173 -4.375795 -0.000001 -0.000017 41.187813 -10.921180 160.637880 -0.000001 0.000001 -10.004987 -553.599290 -175.505727 -539.944376 0.000001 0.000001 -13.174904 42.769176 -5.400190 402.843902 2.240597 0.386804 -2.614107 134.054101 -36.820085 101.180414 0.000000 0.000001 -18.592892 -117.411498 37.156922 134.148112 0.000001 0.000000 -18.765799 9.315843 36.868142 -5.666386 -2.014901 -0.220893 -2.615903 -114.009080 -22.224836 -90.867375 0.000001 0.000003 -18.633881 174.824525 29.982410 -179.394372 -0.000006 -0.000008 -18.285086 -12.388119 33.357104 -208.570714
-6.611500 26.905405 7.612309 6.171130 -7.710561 3.104598 -0.204900 1.598101 7.917308 -6.323471 11.150846 1.994239 0.000000 0.000006 3.404097 -3.773037 -18.096426 -2.412834 -0.000002 0.000002 7.928602 6.873278 11.313716 -7.483685 -0.000000 0.000003 2.173901 0.391847 -5.011095 3.054437 2.833798 -1.396296 4.843307 33.537021 -5.206457 -8.186012 4.363597 0.000006 -0.000003 -55.760469 -14.727046 -121.273998 -0.000000 0.000001 -10.306900 575.315576 -167.903685 543.500227 -0.000006 0.000005 -12.404898 -399.111285 342.309683 -407.136921 -2.354803 -1.897200 5.063102 9.944457 11.428457 -17.565939 -4.375800 0.000002 -0.000009 39.187244 -11.139320 160.510456 -0.000003 -0.000000 -10.004997 -554.579505 -175.671373 -539.968746 0.000004 0.000002 -13.174892 43.066757 -5.390557 403.087302 2.240598 0.386803 -2.614102 134.038583 -37.027104 101.218192 0.000000 -0.000002 -18.592894 -117.271001 37.282997 134.188150 -0.000000 -0.000000 -18.765797 9.243885 36.798764 -5.743470 -2.014899 -0.220895 -2.615897 -114.004170 -22.160069 -90.948928 -0.000001 0.000001 -18.633884 174.790510 29.999349 -179.402404 -0.000006 -0.000007 -18.285086 -12.492991 33.342982 -208.474271
-6.619900 26.924803 7.591614 6.195179 -7.738559 3.079256 -0.204900 1.598099 7.917308 -6.356321 11.401542 2.030353 0.000000 0.000001 3.404096 -3.742662 -18.133386 -2.411452 -0.000000 -0.000002 7.928596 6.805698 11.036530 -7.471333 0.000001 0.000003 2.173897 0.340710 -5.097170 3.018199 2.833798 -1.396300 4.843304 33.454239 -5.084518 -8.003768 4.363595 0.000010 -0.000011 -55.467099 -14.504129 -121.456295 -0.000001 -0.000001 -10.306895 575.657195 -167.937809 543.514216 -0.000008 0.000008 -12.404895 -399.229065 342.217285 -407.904034 -2.354801 -1.897202 5.063101 9.913283 11.247456 -17.483041 -4.375795 0.000000 -0.000012 38.424944 -10.983439 160.312176 -0.000004 0.000000 -10.004987 -555.546933 -175.817416 -539.995958 0.000006 0.000004 -13.174900 43.239879 -5.384025 403.377093 2.240599 0.386804 -2.614096 133.961088 -37.247784 101.200659 0.000000 -0.000002 -18.592894 -117.114890 37.374631 134.212739 0.000001 0.000000 -18.765799 9.183968 36.703784 -5.805400 -2.014898 -0.220896 -2.615894 -114.023465 -22.122834 -90.990769 0.000000 0.000001 -18.633886 174.752821 30.017633 -179.405027 -0.000006 -0.000008 -18.285086 -12.594650 33.329612 -208.381572
